<svg xmlns="http://www.w3.org/2000/svg" viewBox="0 0 1280 720" role="img" aria-labelledby="title desc">
  <title id="title">Login screen preview</title>
  <desc id="desc">Stylized preview of the application login screen.</desc>
  <defs>
    <linearGradient id="bg" x1="0" x2="1" y1="0" y2="1">
      <stop offset="0%" stop-color="#f5f7fb" />
      <stop offset="100%" stop-color="#eef3ff" />
    </linearGradient>
    <linearGradient id="card" x1="0" x2="0" y1="0" y2="1">
      <stop offset="0%" stop-color="#ffffff" />
      <stop offset="100%" stop-color="#fafcff" />
    </linearGradient>
  </defs>
  <rect width="1280" height="720" fill="url(#bg)" />
  <circle cx="240" cy="130" r="88" fill="#dbe9ff" opacity="0.8" />
  <circle cx="1080" cy="580" r="120" fill="#d9f0e2" opacity="0.75" />
  <rect x="430" y="150" width="420" height="420" rx="24" fill="url(#card)" stroke="#d8e0ef" />
  <rect x="606" y="208" width="68" height="68" rx="18" fill="#2b6de8" />
  <path d="M627 239h6v8h-6zm20 0h6v8h-6M627 270h6v8h-6zm20 0h6v8h-6" stroke="#fff" stroke-width="4" stroke-linecap="round" />
  <text x="640" y="330" text-anchor="middle" font-family="Inter, Arial, sans-serif" font-size="40" font-weight="700" fill="#111827">Digitization System</text>
  <text x="640" y="370" text-anchor="middle" font-family="Inter, Arial, sans-serif" font-size="18" fill="#64748b">Automated Student Marks Digitization</text>
  <rect x="482" y="408" width="316" height="42" rx="10" fill="#fff" stroke="#d4dbe8" />
  <circle cx="540" cy="429" r="12" fill="#fff" />
  <path d="M533 429h14" stroke="#4285f4" stroke-width="5" />
  <path d="M540 420c6 0 11 5 11 11s-5 11-11 11" fill="none" stroke="#ea4335" stroke-width="5" />
  <text x="640" y="435" text-anchor="middle" font-family="Inter, Arial, sans-serif" font-size="20" font-weight="600" fill="#1f2937">Sign in with Google</text>
  <text x="640" y="495" text-anchor="middle" font-family="Inter, Arial, sans-serif" font-size="13" fill="#94a3b8">Secure access for authorized users</text>
</svg>